<?xml version="1.0" encoding="UTF-8" standalone="no"?>
<!-- Created with Inkscape (http://www.inkscape.org/) -->

<svg
   inkscape:export-ydpi="120"
   inkscape:export-xdpi="120"
   inkscape:export-filename="anyterial_logo_color_small.png"
   sodipodi:docname="anyterial_logo_greyscale.svg"
   inkscape:version="1.2.2 (b0a8486541, 2022-12-01)"
   id="svg10173"
   version="1.1"
   viewBox="0 0 164.99999 165"
   height="165mm"
   width="165mm"
   xmlns:inkscape="http://www.inkscape.org/namespaces/inkscape"
   xmlns:sodipodi="http://sodipodi.sourceforge.net/DTD/sodipodi-0.dtd"
   xmlns="http://www.w3.org/2000/svg"
   xmlns:svg="http://www.w3.org/2000/svg">
  <sodipodi:namedview
     id="namedview10175"
     pagecolor="#000000"
     bordercolor="#666666"
     borderopacity="1.0"
     inkscape:showpageshadow="2"
     inkscape:pageopacity="0"
     inkscape:pagecheckerboard="0"
     inkscape:deskcolor="#d1d1d1"
     inkscape:document-units="mm"
     showgrid="false"
     inkscape:zoom="0.914906"
     inkscape:cx="316.97245"
     inkscape:cy="354.68125"
     inkscape:window-width="1536"
     inkscape:window-height="955"
     inkscape:window-x="0"
     inkscape:window-y="0"
     inkscape:window-maximized="1"
     inkscape:current-layer="layer1" />
  <defs
     id="defs10170" />
  <g
     inkscape:label="Layer 1"
     inkscape:groupmode="layer"
     id="layer1"
     transform="translate(-2.8228499,-3.0099151)">
    <path
       id="path1711-3-6-0-0"
       style="fill:#cfcfcf;stroke-width:0.245635"
       d="M 27.108325,47.399766 C 26.905882,57.0465 26.769731,58.342727 26.728831,56.570527 80.664637,85.186676 19.424829,52.521441 73.528925,81.35505 75.799893,80.645555 65.813474,74.870917 72.249344,72.031861 51.843217,59.884803 46.576415,57.408518 27.108325,47.399766 Z"
       sodipodi:nodetypes="ccccc" />
    <circle
       style="opacity:0.99;fill:#444444;stroke:#cfcfcf;stroke-width:2.19563;stroke-linecap:round;stroke-linejoin:round;stroke-dasharray:none;paint-order:fill markers stroke"
       id="path446-9-1-0-6-4-4-9-6-5-2-1"
       cx="57.056374"
       cy="66.242485"
       r="9.5715914" />
    <path
       id="path1711-3-6-0-4-7"
       style="fill:#cfcfcf;stroke-width:0.245635"
       d="m 99.693827,95.392276 c -0.202443,9.646734 -0.338593,10.942964 -0.379494,9.170764 53.935807,28.61615 -7.304017,-4.04909 46.800097,24.78452 2.27097,-0.7095 -7.71545,-6.48413 -1.27958,-9.32319 -20.40613,-12.14706 -25.67293,-14.62334 -45.141023,-24.632094 z"
       sodipodi:nodetypes="ccccc" />
    <path
       id="path1711-3-6-1-6-1"
       style="fill:#cfcfcf;stroke-width:0.245635"
       d="m 141.05022,47.87763 c 0.20245,9.646734 0.3386,10.942961 0.37948,9.170776 C 87.49391,85.66454 153.5367,49.98163 99.432593,78.815239 97.161625,78.105759 101.45213,75.0466 95.016279,72.207544 115.42241,60.060471 121.58213,57.886397 141.05022,47.87763 Z"
       sodipodi:nodetypes="ccccc" />
    <circle
       style="opacity:0.99;fill:#444444;stroke:#cfcfcf;stroke-width:2.19563;stroke-linecap:round;stroke-linejoin:round;stroke-dasharray:none;paint-order:fill markers stroke"
       id="path446-9-1-0-6-4-4-9-6-5-6-5"
       cx="113.81725"
       cy="66.242485"
       r="9.5715914" />
    <path
       id="path1711-3-6-1-6-7-7"
       style="fill:#cfcfcf;stroke-width:0.245635"
       d="m 75.218448,92.695549 c 0.202443,9.646731 0.338593,10.942961 0.379478,9.170781 -53.935805,28.61613 12.106988,-7.066781 -41.997107,21.76683 -2.270968,-0.70948 2.01954,-3.76864 -4.41633,-6.6077 20.406142,-12.14707 26.565869,-14.32114 46.033959,-24.329911 z"
       sodipodi:nodetypes="ccccc" />
    <path
       id="path1711-3-9-0-7"
       style="fill:#cfcfcf;stroke-width:0.225484"
       d="m 81.428389,90.889257 c -0.152996,17.327863 -0.342497,35.264593 -0.0092,53.055813 h 7.791779 c -0.52897,-52.831421 -0.06768,-7.52316 -0.413692,-53.055813 z"
       sodipodi:nodetypes="ccccc" />
    <circle
       style="opacity:0.99;fill:#444444;stroke:#cfcfcf;stroke-width:2.19564;stroke-linecap:round;stroke-linejoin:round;stroke-dasharray:none;paint-order:fill markers stroke"
       id="path446-9-1-0-6-4-4-9-6-5-6-9-7"
       cx="84.398575"
       cy="109.86561"
       r="9.5715914" />
    <path
       id="path1711-3-2-5"
       style="fill:#cfcfcf;stroke-width:0.245635"
       d="M 85.543398,14.999377 C 63.529534,26.764744 42.339273,38.00569 23.034754,48.236082 c -0.155379,24.432173 -0.502026,50.2719 0.0035,75.595938 62.907736,32.81731 0,-0.29041 62.781806,32.69914 20.39756,-11.11351 43.69804,-22.51527 61.37864,-33.03042 -0.29545,-24.502444 -0.0463,-52.236366 -0.28588,-74.469151 C 126.50668,36.8845 105.01141,25.00816 85.543306,14.999377 Z m -0.379217,9.170792 v 0 c 53.935849,28.61618 -0.05544,-0.179311 54.048699,28.654329 0.31542,23.474493 0.16248,55.657712 0.45656,65.370312 -53.728995,29.72636 -0.28212,0.32783 -53.773692,29.48005 -17.85651,-9.50474 -37.706846,-19.69113 -55.128636,-28.62717 -0.552303,-65.457934 0.0018,-0.16177 -0.426451,-65.418601 54.906274,-29.502726 -0.05564,-0.07275 54.82352,-29.45892 z"
       sodipodi:nodetypes="ccccccccccccccc" />
    <circle
       style="opacity:0.99;fill:#919191;stroke:#cfcfcf;stroke-width:3.02458;stroke-linecap:round;stroke-linejoin:round;stroke-dasharray:none;paint-order:fill markers stroke"
       id="path446-9-1-6"
       cx="28.561979"
       cy="51.439777"
       r="13.18528" />
    <circle
       style="opacity:0.99;fill:#919191;stroke:#cfcfcf;stroke-width:3.02458;stroke-linecap:round;stroke-linejoin:round;stroke-dasharray:none;paint-order:fill markers stroke"
       id="path446-9-1-0-4"
       cx="85.550766"
       cy="21.484423"
       r="13.18528" />
    <circle
       style="opacity:0.99;fill:#919191;stroke:#cfcfcf;stroke-width:3.02458;stroke-linecap:round;stroke-linejoin:round;stroke-dasharray:none;paint-order:fill markers stroke"
       id="path446-9-1-0-6-9"
       cx="142.08372"
       cy="51.439774"
       r="13.18528" />
    <circle
       style="opacity:0.99;fill:#919191;stroke:#cfcfcf;stroke-width:3.02458;stroke-linecap:round;stroke-linejoin:round;stroke-dasharray:none;paint-order:fill markers stroke"
       id="path446-9-1-0-6-4-0-0"
       cx="85.550766"
       cy="149.53542"
       r="13.18528" />
    <circle
       style="opacity:0.99;fill:#444444;stroke:#cfcfcf;stroke-width:2.19563;stroke-linecap:round;stroke-linejoin:round;stroke-dasharray:none;paint-order:fill markers stroke"
       id="path446-9-1-0-6-4-4-9-61"
       cx="142.86029"
       cy="86.784073"
       r="9.5715914" />
    <circle
       style="opacity:0.99;fill:#444444;stroke:#cfcfcf;stroke-width:2.19563;stroke-linecap:round;stroke-linejoin:round;stroke-dasharray:none;paint-order:fill markers stroke"
       id="path446-9-1-0-6-4-4-9-61-3"
       cx="113.81725"
       cy="138.10107"
       r="9.5715914" />
    <circle
       style="opacity:0.99;fill:#444444;stroke:#cfcfcf;stroke-width:2.19563;stroke-linecap:round;stroke-linejoin:round;stroke-dasharray:none;paint-order:fill markers stroke"
       id="path446-9-1-0-6-4-4-9-6-9"
       cx="113.81725"
       cy="34.86018"
       r="9.5715914" />
    <circle
       style="opacity:0.99;fill:#444444;stroke:#cfcfcf;stroke-width:2.19563;stroke-linecap:round;stroke-linejoin:round;stroke-dasharray:none;paint-order:fill markers stroke"
       id="path446-9-1-0-6-4-4-9-6-5-8"
       cx="57.056374"
       cy="34.86018"
       r="9.5715914" />
    <circle
       style="opacity:0.99;fill:#444444;stroke:#cfcfcf;stroke-width:2.19563;stroke-linecap:round;stroke-linejoin:round;stroke-dasharray:none;paint-order:fill markers stroke"
       id="path446-9-1-0-6-4-4-9-6-5-7-0"
       cx="26.147629"
       cy="86.123085"
       r="9.5715914" />
    <circle
       style="opacity:0.99;fill:#444444;stroke:#cfcfcf;stroke-width:2.19563;stroke-linecap:round;stroke-linejoin:round;stroke-dasharray:none;paint-order:fill markers stroke"
       id="path446-9-1-0-6-4-4-9-6-8-4"
       cx="57.056374"
       cy="138.10109"
       r="9.5715914" />
    <path
       id="path2134-3-6"
       style="fill:#cfcfcf;fill-rule:evenodd;stroke:#606060;stroke-width:3.40965;stroke-linecap:butt;stroke-linejoin:miter;stroke-dasharray:none;stroke-opacity:1"
       d="m 75.995357,40.325969 -33.758297,78.058301 21.2637,0.007 4.867265,-10.89516 33.262065,-0.0198 4.80246,10.67372 21.95107,0.20501 -34.165984,-77.949123 z m 9.090651,26.468944 9.918236,22.503886 -19.337812,-0.131247 z" />
    <circle
       style="opacity:0.99;fill:#919191;stroke:#cfcfcf;stroke-width:3.02458;stroke-linecap:round;stroke-linejoin:round;stroke-dasharray:none;paint-order:fill markers stroke"
       id="path446-9-1-0-6-4-4-3"
       cx="142.08372"
       cy="121.15935"
       r="13.18528" />
    <circle
       style="opacity:0.99;fill:#919191;stroke:#cfcfcf;stroke-width:3.02458;stroke-linecap:round;stroke-linejoin:round;stroke-dasharray:none;paint-order:fill markers stroke"
       id="path446-9-1-0-6-4-8"
       cx="28.561983"
       cy="121.15935"
       r="13.18528" />
  </g>
</svg>
