<?xml version="1.0" encoding="UTF-8" standalone="no"?>
<!-- Created with Inkscape (http://www.inkscape.org/) -->

<svg
   width="165mm"
   height="165mm"
   viewBox="0 0 164.99999 165"
   version="1.1"
   id="svg10173"
   inkscape:version="1.2.2 (b0a8486541, 2022-12-01)"
   sodipodi:docname="anyterial_logo_color_blackbg.svg"
   inkscape:export-filename="anyterial_logo_color_small.png"
   inkscape:export-xdpi="120"
   inkscape:export-ydpi="120"
   xmlns:inkscape="http://www.inkscape.org/namespaces/inkscape"
   xmlns:sodipodi="http://sodipodi.sourceforge.net/DTD/sodipodi-0.dtd"
   xmlns="http://www.w3.org/2000/svg"
   xmlns:svg="http://www.w3.org/2000/svg">
  <sodipodi:namedview
     id="namedview10175"
     pagecolor="#000000"
     bordercolor="#666666"
     borderopacity="1.0"
     inkscape:showpageshadow="2"
     inkscape:pageopacity="0"
     inkscape:pagecheckerboard="0"
     inkscape:deskcolor="#d1d1d1"
     inkscape:document-units="mm"
     showgrid="false"
     inkscape:zoom="0.914906"
     inkscape:cx="310.4144"
     inkscape:cy="315.33294"
     inkscape:window-width="1536"
     inkscape:window-height="955"
     inkscape:window-x="0"
     inkscape:window-y="0"
     inkscape:window-maximized="1"
     inkscape:current-layer="layer1" />
  <defs
     id="defs10170" />
  <g
     inkscape:label="Layer 1"
     inkscape:groupmode="layer"
     id="layer1"
     transform="translate(-2.8228499,-3.0099151)">
    <path
       id="path1711-3-6-0-0"
       style="fill:#545454;stroke-width:0.245635;fill-opacity:1.0"
       d="M 27.108325,47.399766 C 26.905882,57.0465 26.769731,58.342727 26.728831,56.570527 80.664637,85.186676 19.424829,52.521441 73.528925,81.35505 75.799893,80.645555 65.813474,74.870917 72.249344,72.031861 51.843217,59.884803 46.576415,57.408518 27.108325,47.399766 Z"
       sodipodi:nodetypes="ccccc" />
    <circle
       style="opacity:0.99;fill:#99cc33;stroke:#545454;stroke-width:2.19563;stroke-linecap:round;stroke-linejoin:round;stroke-dasharray:none;paint-order:fill markers stroke;fill-opacity:1.0;stroke-opacity:1.0"
       id="path446-9-1-0-6-4-4-9-6-5-2-1"
       cx="57.056374"
       cy="66.242485"
       r="9.5715914" />
    <path
       id="path446-9-1-3-7-8-3-9-2-4-0-26-7"
       style="opacity:0.99;fill:#99cc33;stroke:#000000;stroke-width:1.45367;stroke-linecap:round;stroke-linejoin:round;paint-order:fill markers stroke;fill-opacity:1.0;stroke-opacity:1.0"
       d="m 50.354805,66.144352 c 1e-6,-2.110486 1.050662,-4.08247 2.802322,-5.259684 1.75166,-1.177203 3.974423,-1.405134 5.928546,-0.607932 m 0,0 c -2.860291,0.126485 -6.878115,0.464923 -8.730868,5.867616"
       sodipodi:nodetypes="csccc" />
    <path
       id="path1711-3-6-0-4-7"
       style="fill:#000000;stroke-width:0.245635;fill-opacity:1.0"
       d="m 99.693827,95.392276 c -0.202443,9.646734 -0.338593,10.942964 -0.379494,9.170764 53.935807,28.61615 -7.304017,-4.04909 46.800097,24.78452 2.27097,-0.7095 -7.71545,-6.48413 -1.27958,-9.32319 -20.40613,-12.14706 -25.67293,-14.62334 -45.141023,-24.632094 z"
       sodipodi:nodetypes="ccccc" />
    <path
       id="path1711-3-6-1-6-1"
       style="fill:#545454;stroke-width:0.245635;fill-opacity:1.0"
       d="m 141.05022,47.87763 c 0.20245,9.646734 0.3386,10.942961 0.37948,9.170776 C 87.49391,85.66454 153.5367,49.98163 99.432593,78.815239 97.161625,78.105759 101.45213,75.0466 95.016279,72.207544 115.42241,60.060471 121.58213,57.886397 141.05022,47.87763 Z"
       sodipodi:nodetypes="ccccc" />
    <circle
       style="opacity:0.99;fill:#99cc33;stroke:#545454;stroke-width:2.19563;stroke-linecap:round;stroke-linejoin:round;stroke-dasharray:none;paint-order:fill markers stroke;fill-opacity:1.0;stroke-opacity:1.0"
       id="path446-9-1-0-6-4-4-9-6-5-6-5"
       cx="113.81725"
       cy="66.242485"
       r="9.5715914" />
    <path
       id="path446-9-1-3-7-8-3-9-2-4-0-1-9"
       style="opacity:0.99;fill:#99cc33;stroke:#000000;stroke-width:1.45367;stroke-linecap:round;stroke-linejoin:round;paint-order:fill markers stroke;fill-opacity:1.0;stroke-opacity:1.0"
       d="m 107.11568,66.144353 c 0,-2.110486 1.05066,-4.08247 2.80232,-5.259684 1.75166,-1.177203 3.97442,-1.405134 5.92855,-0.607932 m 0,0 c -2.86029,0.126485 -6.87812,0.464923 -8.73087,5.867616"
       sodipodi:nodetypes="csccc" />
    <path
       id="path1711-3-6-1-6-7-7"
       style="fill:#000000;stroke-width:0.245635;fill-opacity:1.0"
       d="m 75.218448,92.695549 c 0.202443,9.646731 0.338593,10.942961 0.379478,9.170781 -53.935805,28.61613 12.106988,-7.066781 -41.997107,21.76683 -2.270968,-0.70948 2.01954,-3.76864 -4.41633,-6.6077 20.406142,-12.14707 26.565869,-14.32114 46.033959,-24.329911 z"
       sodipodi:nodetypes="ccccc" />
    <path
       id="path1711-3-9-0-7"
       style="fill:#545454;stroke-width:0.225484;fill-opacity:1.0"
       d="m 81.428389,90.889257 c -0.152996,17.327863 -0.342497,35.264593 -0.0092,53.055813 h 7.791779 c -0.52897,-52.831421 -0.06768,-7.52316 -0.413692,-53.055813 z"
       sodipodi:nodetypes="ccccc" />
    <circle
       style="opacity:0.99;fill:#99cc33;stroke:#545454;stroke-width:2.19564;stroke-linecap:round;stroke-linejoin:round;stroke-dasharray:none;paint-order:fill markers stroke;fill-opacity:1.0;stroke-opacity:1.0"
       id="path446-9-1-0-6-4-4-9-6-5-6-9-7"
       cx="84.398575"
       cy="109.86561"
       r="9.5715914" />
    <path
       id="path1711-3-2-5"
       style="fill:#545454;stroke-width:0.245635;stroke:#545454;fill-opacity:1.0;stroke-opacity:1.0"
       d="M 85.543398,14.999377 C 63.529534,26.764744 42.339273,38.00569 23.034754,48.236082 c -0.155379,24.432173 -0.502026,50.2719 0.0035,75.595938 62.907736,32.81731 0,-0.29041 62.781806,32.69914 20.39756,-11.11351 43.69804,-22.51527 61.37864,-33.03042 -0.29545,-24.502444 -0.0463,-52.236366 -0.28588,-74.469151 C 126.50668,36.8845 105.01141,25.00816 85.543306,14.999377 Z m -0.379217,9.170792 v 0 c 53.935849,28.61618 -0.05544,-0.179311 54.048699,28.654329 0.31542,23.474493 0.16248,55.657712 0.45656,65.370312 -53.728995,29.72636 -0.28212,0.32783 -53.773692,29.48005 -17.85651,-9.50474 -37.706846,-19.69113 -55.128636,-28.62717 -0.552303,-65.457934 0.0018,-0.16177 -0.426451,-65.418601 54.906274,-29.502726 -0.05564,-0.07275 54.82352,-29.45892 z"
       sodipodi:nodetypes="ccccccccccccccc" />
    <circle
       style="opacity:0.99;fill:#6699ff;stroke:#545454;stroke-width:3.02458;stroke-linecap:round;stroke-linejoin:round;stroke-dasharray:none;paint-order:fill markers stroke;fill-opacity:1.0;stroke-opacity:1.0"
       id="path446-9-1-6"
       cx="28.561979"
       cy="51.439777"
       r="13.18528" />
    <path
       id="path446-9-1-3-3"
       style="opacity:0.99;fill:#ffffff;stroke:#000000;stroke-width:2.00249;stroke-linecap:round;stroke-linejoin:round;paint-order:fill markers stroke;fill-opacity:1.0;stroke-opacity:1.0"
       d="m 19.933047,51.304589 c 0,-2.907284 1.447333,-5.623777 3.860323,-7.245441 2.41299,-1.621647 5.474931,-1.935633 8.166831,-0.837453 m 0,0 c -3.940172,0.174239 -9.474909,0.640452 -12.027154,8.082894"
       sodipodi:nodetypes="csccc" />
    <circle
       style="opacity:0.99;fill:#6699ff;stroke:#545454;stroke-width:3.02458;stroke-linecap:round;stroke-linejoin:round;stroke-dasharray:none;paint-order:fill markers stroke;fill-opacity:1;stroke-opacity:1"
       id="path446-9-1-0-4"
       cx="85.550766"
       cy="21.484423"
       r="13.18528" />
    <path
       id="path446-9-1-3-7-81"
       style="opacity:0.99;fill:#6699ff;stroke:#000000;stroke-width:2.00249;stroke-linecap:round;stroke-linejoin:round;paint-order:fill markers stroke;fill-opacity:1.0;stroke-opacity:1.0"
       d="m 76.319072,21.349238 c 10e-7,-2.907285 1.447333,-5.623777 3.86032,-7.245441 2.412986,-1.621648 5.474938,-1.935633 8.166826,-0.837453 m 0,0 c -3.940173,0.174239 -9.474899,0.640452 -12.027146,8.082894"
       sodipodi:nodetypes="csccc" />
    <circle
       style="opacity:0.99;fill:#6699ff;stroke:#545454;stroke-width:3.02458;stroke-linecap:round;stroke-linejoin:round;stroke-dasharray:none;paint-order:fill markers stroke;fill-opacity:1.0;stroke-opacity:1.0"
       id="path446-9-1-0-6-9"
       cx="142.08372"
       cy="51.439774"
       r="13.18528" />
    <path
       id="path446-9-1-3-7-8-39"
       style="opacity:0.99;fill:#6699ff;stroke:#000000;stroke-width:2.00249;stroke-linecap:round;stroke-linejoin:round;paint-order:fill markers stroke;fill-opacity:1.0;stroke-opacity:1.0"
       d="m 132.85202,51.304588 c 0,-2.907285 1.44733,-5.623777 3.86032,-7.245441 2.41299,-1.621648 5.47494,-1.935633 8.16683,-0.837453 m 0,0 c -3.94018,0.174239 -9.4749,0.640452 -12.02715,8.082894"
       sodipodi:nodetypes="csccc" />
    <circle
       style="opacity:0.99;fill:#6699ff;stroke:#545454;stroke-width:3.02458;stroke-linecap:round;stroke-linejoin:round;stroke-dasharray:none;paint-order:fill markers stroke;fill-opacity:1.0;stroke-opacity:1.0"
       id="path446-9-1-0-6-4-0-0"
       cx="85.550766"
       cy="149.53542"
       r="13.18528" />
    <path
       id="path446-9-1-3-7-8-3-6-9"
       style="opacity:0.99;fill:#6699ff;stroke:#000000;stroke-width:2.00249;stroke-linecap:round;stroke-linejoin:round;paint-order:fill markers stroke;fill-opacity:1.0;stroke-opacity:1.0"
       d="m 76.319072,149.40023 c 10e-7,-2.90729 1.447333,-5.62378 3.86032,-7.24544 2.412986,-1.62165 5.474938,-1.93564 8.166826,-0.83746 m 0,0 c -3.940173,0.17424 -9.474899,0.64046 -12.027146,8.0829"
       sodipodi:nodetypes="csccc" />
    <circle
       style="opacity:0.99;fill:#99cc33;stroke:#545454;stroke-width:2.19563;stroke-linecap:round;stroke-linejoin:round;stroke-dasharray:none;paint-order:fill markers stroke;fill-opacity:1.0;stroke-opacity:1.0"
       id="path446-9-1-0-6-4-4-9-61"
       cx="142.86029"
       cy="86.784073"
       r="9.5715914" />
    <path
       id="path446-9-1-3-7-8-3-9-2-1"
       style="opacity:0.99;fill:#99cc33;stroke:#000000;stroke-width:1.45367;stroke-linecap:round;stroke-linejoin:round;paint-order:fill markers stroke;fill-opacity:1.0;stroke-opacity:1.0"
       d="m 136.15872,86.685939 c 0,-2.110486 1.05066,-4.08247 2.80232,-5.259684 1.75166,-1.177203 3.97443,-1.405134 5.92855,-0.607932 m 0,0 c -2.86029,0.126485 -6.87812,0.464923 -8.73087,5.867616"
       sodipodi:nodetypes="csccc" />
    <circle
       style="opacity:0.99;fill:#99cc33;stroke:#545454;stroke-width:2.19563;stroke-linecap:round;stroke-linejoin:round;stroke-dasharray:none;paint-order:fill markers stroke;fill-opacity:1.0;stroke-opacity:1.0"
       id="path446-9-1-0-6-4-4-9-61-3"
       cx="113.81725"
       cy="138.10107"
       r="9.5715914" />
    <path
       id="path446-9-1-3-7-8-3-9-2-1-1"
       style="opacity:0.99;fill:#99cc33;stroke:#000000;stroke-width:1.45367;stroke-linecap:round;stroke-linejoin:round;paint-order:fill markers stroke;fill-opacity:1.0;stroke-opacity:1.0"
       d="m 107.11568,138.00294 c 0,-2.11048 1.05066,-4.08247 2.80232,-5.25968 1.75166,-1.1772 3.97442,-1.40513 5.92855,-0.60793 m 0,0 c -2.86029,0.12648 -6.87812,0.46492 -8.73087,5.86761"
       sodipodi:nodetypes="csccc" />
    <circle
       style="opacity:0.99;fill:#99cc33;stroke:#545454;stroke-width:2.19563;stroke-linecap:round;stroke-linejoin:round;stroke-dasharray:none;paint-order:fill markers stroke;fill-opacity:1.0;stroke-opacity:1.0"
       id="path446-9-1-0-6-4-4-9-6-9"
       cx="113.81725"
       cy="34.86018"
       r="9.5715914" />
    <path
       id="path446-9-1-3-7-8-3-9-2-4-8"
       style="opacity:0.99;fill:#99cc33;stroke:#000000;stroke-width:1.45367;stroke-linecap:round;stroke-linejoin:round;paint-order:fill markers stroke;fill-opacity:1.0;stroke-opacity:1.0"
       d="m 107.11568,34.762046 c 0,-2.110486 1.05066,-4.08247 2.80232,-5.259684 1.75166,-1.177203 3.97442,-1.405134 5.92855,-0.607932 m 0,0 c -2.86029,0.126485 -6.87812,0.464923 -8.73087,5.867616"
       sodipodi:nodetypes="csccc" />
    <circle
       style="opacity:0.99;fill:#99cc33;stroke:#545454;stroke-width:2.19563;stroke-linecap:round;stroke-linejoin:round;stroke-dasharray:none;paint-order:fill markers stroke;fill-opacity:1.0;stroke-opacity:1.0"
       id="path446-9-1-0-6-4-4-9-6-5-8"
       cx="57.056374"
       cy="34.86018"
       r="9.5715914" />
    <path
       id="path446-9-1-3-7-8-3-9-2-4-0-10"
       style="opacity:0.99;fill:#99cc33;stroke:#000000;stroke-width:1.45367;stroke-linecap:round;stroke-linejoin:round;paint-order:fill markers stroke;fill-opacity:1.0;stroke-opacity:1.0"
       d="m 50.354805,34.762046 c 1e-6,-2.110486 1.050662,-4.08247 2.802322,-5.259684 1.75166,-1.177203 3.974423,-1.405134 5.928546,-0.607932 m 0,0 c -2.860291,0.126485 -6.878115,0.464923 -8.730868,5.867616"
       sodipodi:nodetypes="csccc" />
    <circle
       style="opacity:0.99;fill:#99cc33;stroke:#545454;stroke-width:2.19563;stroke-linecap:round;stroke-linejoin:round;stroke-dasharray:none;paint-order:fill markers stroke;fill-opacity:1.0;stroke-opacity:1.0"
       id="path446-9-1-0-6-4-4-9-6-5-7-0"
       cx="26.147629"
       cy="86.123085"
       r="9.5715914" />
    <path
       id="path446-9-1-3-7-8-3-9-2-4-0-2-4"
       style="opacity:0.99;fill:#99cc33;stroke:#000000;stroke-width:1.45367;stroke-linecap:round;stroke-linejoin:round;paint-order:fill markers stroke;fill-opacity:1.0;stroke-opacity:1.0"
       d="m 19.446061,86.024951 c 1e-6,-2.110486 1.050662,-4.08247 2.802322,-5.259684 1.75166,-1.177203 3.974423,-1.405134 5.928546,-0.607932 m 0,0 c -2.860291,0.126485 -6.878115,0.464923 -8.730868,5.867616"
       sodipodi:nodetypes="csccc" />
    <circle
       style="opacity:0.99;fill:#99cc33;stroke:#545454;stroke-width:2.19563;stroke-linecap:round;stroke-linejoin:round;stroke-dasharray:none;paint-order:fill markers stroke;fill-opacity:1.0;stroke-opacity:1.0"
       id="path446-9-1-0-6-4-4-9-6-8-4"
       cx="57.056374"
       cy="138.10109"
       r="9.5715914" />
    <path
       id="path446-9-1-3-7-8-3-9-2-4-7-7"
       style="opacity:0.99;fill:#99cc33;stroke:#000000;stroke-width:1.45367;stroke-linecap:round;stroke-linejoin:round;paint-order:fill markers stroke;fill-opacity:1.0;stroke-opacity:1.0"
       d="m 50.354805,138.00296 c 1e-6,-2.11049 1.050662,-4.08247 2.802322,-5.25968 1.75166,-1.17721 3.974423,-1.40514 5.928546,-0.60794 m 0,0 c -2.860291,0.12649 -6.878115,0.46493 -8.730868,5.86762"
       sodipodi:nodetypes="csccc" />
    <path
       id="path2134-3-6"
       style="fill:#ff6600;fill-rule:evenodd;stroke:#000000;stroke-width:3.40965;stroke-linecap:butt;stroke-linejoin:miter;stroke-dasharray:none;stroke-opacity:1.0;fill-opacity:1.0"
       d="m 75.995357,40.325969 -33.758297,78.058301 21.2637,0.007 4.867265,-10.89516 33.262065,-0.0198 4.80246,10.67372 21.95107,0.20501 -34.165984,-77.949123 z m 9.090651,26.468944 9.918236,22.503886 -19.337812,-0.131247 z" />
    <circle
       style="opacity:0.99;fill:#6699ff;stroke:#545454;stroke-width:3.02458;stroke-linecap:round;stroke-linejoin:round;stroke-dasharray:none;paint-order:fill markers stroke;fill-opacity:1.0;stroke-opacity:1.0"
       id="path446-9-1-0-6-4-4-3"
       cx="142.08372"
       cy="121.15935"
       r="13.18528" />
    <path
       id="path446-9-1-3-7-8-3-9-8"
       style="opacity:0.99;fill:#6699ff;stroke:#000000;stroke-width:2.00249;stroke-linecap:round;stroke-linejoin:round;paint-order:fill markers stroke;fill-opacity:1.0;stroke-opacity:1.0"
       d="m 132.85202,121.02416 c 0,-2.90728 1.44733,-5.62378 3.86032,-7.24544 2.41299,-1.62165 5.47494,-1.93563 8.16683,-0.83745 m 0,0 c -3.94018,0.17424 -9.4749,0.64045 -12.02715,8.08289"
       sodipodi:nodetypes="csccc" />
    <circle
       style="opacity:0.99;fill:#6699ff;stroke:#545454;stroke-width:3.02458;stroke-linecap:round;stroke-linejoin:round;stroke-dasharray:none;paint-order:fill markers stroke;fill-opacity:1.0;stroke-opacity:1.0"
       id="path446-9-1-0-6-4-8"
       cx="28.561983"
       cy="121.15935"
       r="13.18528" />
    <path
       id="path446-9-1-3-7-8-3-8"
       style="opacity:0.99;fill:#6699ff;stroke:#000000;stroke-width:2.00249;stroke-linecap:round;stroke-linejoin:round;paint-order:fill markers stroke;fill-opacity:1.0;stroke-opacity:1.0"
       d="m 19.330286,121.02416 c 10e-7,-2.90728 1.447333,-5.62378 3.86032,-7.24544 2.412986,-1.62165 5.474938,-1.93563 8.166826,-0.83745 m 0,0 c -3.940173,0.17424 -9.474899,0.64045 -12.027146,8.08289"
       sodipodi:nodetypes="csccc" />
  </g>
</svg>
